<?xml version="1.0" encoding="UTF-8" standalone="no"?>
<svg
   width="1376"
   height="253"
   viewBox="0 0 1376 253"
   fill="none"
   version="1.1"
   id="svg8"
   sodipodi:docname="67b65230641b1336147bd7d0_error-404.svg"
   inkscape:export-filename="67b65230641b1336147bd7d0_error-404.png"
   inkscape:export-xdpi="96"
   inkscape:export-ydpi="96"
   xmlns:inkscape="http://www.inkscape.org/namespaces/inkscape"
   xmlns:sodipodi="http://sodipodi.sourceforge.net/DTD/sodipodi-0.dtd"
   xmlns="http://www.w3.org/2000/svg"
   xmlns:svg="http://www.w3.org/2000/svg">
  <defs
     id="defs8" />
  <sodipodi:namedview
     id="namedview8"
     pagecolor="#ffffff"
     bordercolor="#000000"
     borderopacity="0.25"
     inkscape:showpageshadow="2"
     inkscape:pageopacity="0.0"
     inkscape:pagecheckerboard="0"
     inkscape:deskcolor="#d1d1d1">
    <inkscape:page
       x="0"
       y="0"
       width="1376"
       height="253"
       id="page2"
       margin="0"
       bleed="0" />
  </sodipodi:namedview>
  <path
     d="M 1179.06,204.691 V 164.015 L 1281.05,3.33997 h 35.07 V 59.642 h -20.76 l -64.29,101.749 V 163.3 H 1376 v 41.391 z m 117.26,42.943 v -55.348 l 0.95,-18.012 V 3.33997 h 48.43 V 247.634 Z"
     fill="black"
     id="path1"
     style="fill:#f24913;fill-opacity:1" />
  <path
     d="m 1068.28,253.001 c -20.52,-0.079 -38.17,-5.129 -52.96,-15.149 -14.72,-10.02 -26.048,-24.533 -34,-43.538 -7.873,-19.006 -11.769,-41.869 -11.69,-68.589 0,-26.6398 3.936,-49.3435 11.809,-68.1109 7.952,-18.7673 19.281,-33.0416 34.001,-42.8229 C 1030.23,4.93041 1047.84,0 1068.28,0 c 20.44,0 38.01,4.93041 52.72,14.7912 14.79,9.8608 26.16,24.1749 34.12,42.9422 7.95,18.6879 11.89,41.3518 11.81,67.9916 0,26.799 -3.98,49.702 -11.93,68.708 -7.88,19.006 -19.17,33.519 -33.88,43.539 -14.71,10.019 -32.33,15.029 -52.84,15.029 z m 0,-42.823 c 13.99,0 25.17,-7.037 33.52,-21.113 8.35,-14.075 12.48,-35.189 12.4,-63.34 0,-18.528 -1.91,-33.9559 -5.72,-46.2819 -3.74,-12.326 -9.07,-21.5904 -15.99,-27.7932 -6.84,-6.2027 -14.91,-9.3041 -24.21,-9.3041 -13.92,0 -25.05,6.9582 -33.4,20.8747 -8.35,13.9165 -12.57,34.7514 -12.65,62.5045 0,18.768 1.87,34.434 5.61,46.998 3.82,12.485 9.19,21.869 16.1,28.151 6.92,6.203 15.03,9.304 24.34,9.304 z"
     fill="black"
     id="path2"
     style="fill:#f24913;fill-opacity:1" />
  <path
     d="M 762.137,204.691 V 164.015 L 864.125,3.33997 h 35.069 V 59.642 h -20.755 l -64.294,101.749 v 1.909 h 144.93 v 41.391 z m 117.256,42.943 v -55.348 l 0.954,-18.012 V 3.33997 h 48.429 V 247.634 Z"
     fill="black"
     id="path3"
     style="fill:#f24913;fill-opacity:1" />
  <path
     d="M 593.109,247.634 V 64.4134 h 49.265 v 31.9681 h 1.908 c 3.34,-11.3717 8.946,-19.9602 16.819,-25.7653 7.873,-5.8847 16.939,-8.827 27.197,-8.827 2.545,0 5.288,0.159 8.231,0.4771 2.942,0.3181 5.526,0.7555 7.753,1.3121 v 45.0896 c -2.386,-0.716 -5.686,-1.352 -9.901,-1.909 -4.214,-0.556 -8.071,-0.835 -11.57,-0.835 -7.475,0 -14.155,1.63 -20.04,4.891 -5.805,3.181 -10.417,7.634 -13.837,13.36 -3.34,5.725 -5.01,12.326 -5.01,19.801 v 103.658 z"
     fill="black"
     id="path4"
     style="fill:#f24913;fill-opacity:1" />
  <path
     d="m 490.886,251.212 c -18.529,0 -34.553,-3.936 -48.072,-11.809 -13.439,-7.952 -23.817,-19.006 -31.133,-33.161 -7.316,-14.235 -10.974,-30.735 -10.974,-49.503 0,-18.926 3.658,-35.467 10.974,-49.622 7.316,-14.2345 17.694,-25.2882 31.133,-33.1609 13.519,-7.9523 29.543,-11.9284 48.072,-11.9284 18.528,0 34.513,3.9761 47.952,11.9284 13.519,7.8727 23.936,18.9264 31.252,33.1609 7.316,14.155 10.974,30.696 10.974,49.622 0,18.768 -3.658,35.268 -10.974,49.503 -7.316,14.155 -17.733,25.209 -31.252,33.161 -13.439,7.873 -29.424,11.809 -47.952,11.809 z m 0.238,-39.364 c 8.43,0 15.467,-2.385 21.114,-7.157 5.646,-4.851 9.9,-11.451 12.763,-19.801 2.942,-8.35 4.413,-17.853 4.413,-28.509 0,-10.656 -1.471,-20.159 -4.413,-28.509 -2.863,-8.349 -7.117,-14.95 -12.763,-19.801 -5.647,-4.851 -12.684,-7.276 -21.114,-7.276 -8.509,0 -15.666,2.425 -21.471,7.276 -5.725,4.851 -10.059,11.452 -13.002,19.801 -2.863,8.35 -4.294,17.853 -4.294,28.509 0,10.656 1.431,20.159 4.294,28.509 2.943,8.35 7.277,14.95 13.002,19.801 5.805,4.772 12.962,7.157 21.471,7.157 z"
     fill="black"
     id="path5"
     style="fill:#f24913;fill-opacity:1" />
  <path
     d="M 300.176,247.634 V 64.4134 h 49.264 v 31.9681 h 1.909 c 3.34,-11.3717 8.946,-19.9602 16.819,-25.7653 7.872,-5.8847 16.938,-8.827 27.196,-8.827 2.545,0 5.289,0.159 8.231,0.4771 2.942,0.3181 5.527,0.7555 7.753,1.3121 v 45.0896 c -2.385,-0.716 -5.685,-1.352 -9.9,-1.909 -4.215,-0.556 -8.072,-0.835 -11.571,-0.835 -7.475,0 -14.155,1.63 -20.039,4.891 -5.806,3.181 -10.418,7.634 -13.837,13.36 -3.34,5.725 -5.01,12.326 -5.01,19.801 v 103.658 z"
     fill="black"
     id="path6"
     style="fill:#f24913;fill-opacity:1" />
  <path
     d="M 183.727,247.634 V 64.4134 h 49.264 v 31.9681 h 1.908 c 3.34,-11.3717 8.947,-19.9602 16.819,-25.7653 7.873,-5.8847 16.939,-8.827 27.197,-8.827 2.545,0 5.288,0.159 8.231,0.4771 2.942,0.3181 5.527,0.7555 7.753,1.3121 v 45.0896 c -2.385,-0.716 -5.686,-1.352 -9.9,-1.909 -4.215,-0.556 -8.072,-0.835 -11.571,-0.835 -7.475,0 -14.155,1.63 -20.04,4.891 -5.805,3.181 -10.417,7.634 -13.837,13.36 -3.339,5.725 -5.009,12.326 -5.009,19.801 v 103.658 z"
     fill="black"
     id="path7"
     style="fill:#f24913;fill-opacity:1" />
  <path
     d="M 0,247.634 V 3.33997 H 164.612 V 45.9243 H 51.65 v 58.2107 h 104.493 v 42.584 H 51.65 v 58.33 h 113.439 v 42.585 z"
     fill="black"
     id="path8"
     style="fill:#f24913;fill-opacity:1" />
</svg>
